<svg width="50" height="50" viewBox="0 0 50 50" fill="none" xmlns="http://www.w3.org/2000/svg">
<path d="M44.5 6.32001V6.255H5.48V6.32001C4.22 6.41001 3.275 7.44001 3.125 8.69001V35.015C3.125 35.52 3.255 35.945 3.47 36.33C3.965 37.22 4.69 37.67 5.695 37.67H19.78V40.72H15.375C15.11 40.72 14.895 40.94 14.895 41.21V43.24C14.895 43.51 15.11 43.73 15.375 43.73H34.625C34.89 43.73 35.105 43.51 35.105 43.24V41.21C35.105 40.94 34.89 40.72 34.625 40.72H30.2V37.67H44.28C45.29 37.67 46.02 37.22 46.51 36.33C46.73 35.925 46.875 35.495 46.875 35.015V8.69001C46.725 7.44001 45.72 6.41001 44.5 6.32001ZM44.5 8.91001V35.015C44.5 35.17 44.435 35.235 44.285 35.235H5.695C5.545 35.235 5.48 35.17 5.48 35.015V8.69001H44.5V8.91001Z" fill="white"/>
</svg>
