<svg width="50" height="50" viewBox="0 0 50 50" fill="none" xmlns="http://www.w3.org/2000/svg">
<path d="M6.24313 50C4.57649 50 3.00789 49.35 1.82648 48.1667C-0.608826 45.7314 -0.608826 41.7686 1.82648 39.3333L21.6766 19.4832C21.1121 17.9291 20.8267 16.2853 20.8267 14.5832C20.8267 6.54373 27.3682 0 35.4099 0C37.487 0 39.4787 0.424957 41.3265 1.26457C41.7931 1.47705 42.1265 1.9043 42.2184 2.40822C42.31 2.91252 42.1474 3.42903 41.785 3.79181L36.1786 9.39598L36.7767 13.2145L40.5952 13.8103L46.1994 8.20618C46.5618 7.84569 47.0829 7.68547 47.5826 7.77283C48.0869 7.86476 48.5142 8.19778 48.7267 8.6647C49.5682 10.5125 49.9931 12.5042 49.9931 14.5832C49.9931 22.6231 43.4517 29.1668 35.4099 29.1668C33.7097 29.1668 32.066 28.8811 30.5099 28.3165L10.6598 48.1667C9.47876 49.35 7.90977 50 6.24313 50V50ZM35.4099 3.125C29.0913 3.125 23.9517 8.26454 23.9517 14.5832C23.9517 16.2125 24.2828 17.7689 24.9371 19.2081C25.2056 19.8021 25.0809 20.5002 24.6204 20.9602L4.03709 41.5436C2.82021 42.7605 2.82021 44.7418 4.03709 45.9583C5.22041 47.1416 7.26814 47.1416 8.45146 45.9583L29.0348 25.375C29.4933 24.9146 30.1933 24.7833 30.785 25.0584C32.2247 25.7103 33.7807 26.0418 35.4099 26.0418C41.7286 26.0418 46.8681 20.9023 46.8681 14.5832C46.8681 13.7688 46.785 12.9772 46.6225 12.204L42.2432 16.5833C41.8911 16.9353 41.3849 17.0959 40.8974 17.0231L35.1681 16.127C34.4975 16.021 33.9703 15.4957 33.8661 14.8251L32.9704 9.09576C32.8934 8.60214 33.0559 8.10204 33.4099 7.74994L37.7892 3.37067C37.0163 3.20816 36.2225 3.125 35.4099 3.125V3.125Z" fill="white"/>
</svg>
