<svg width="50" height="50" viewBox="0 0 50 50" fill="none" xmlns="http://www.w3.org/2000/svg">
<g clip-path="url(#clip0)">
<path d="M40.3802 14.9326C38.6914 6.4594 30.4536 0.959749 21.9804 2.64852C15.783 3.88371 10.9372 8.72647 9.69818 14.9231C3.69042 15.6154 -0.619047 21.0468 0.0729387 27.0549C0.709993 32.5844 5.3933 36.7561 10.9593 36.7523H18.781C19.645 36.7523 20.3454 36.0519 20.3454 35.1879C20.3454 34.3239 19.645 33.6235 18.781 33.6235H10.9593C6.63918 33.5979 3.15827 30.0754 3.18344 25.7557C3.209 21.4359 6.73149 17.9546 11.0516 17.9798C11.8489 17.9802 12.5188 17.3801 12.6065 16.5878C13.4007 9.72173 19.6107 4.79962 26.4767 5.59384C32.2491 6.2618 36.8028 10.815 37.4703 16.5878C37.6015 17.3942 38.3004 17.9851 39.1175 17.9798C43.4377 17.9798 46.9395 21.4817 46.9395 25.8018C46.9395 30.1216 43.4377 33.6235 39.1175 33.6235H31.2959C30.4318 33.6235 29.7314 34.3239 29.7314 35.1879C29.7314 36.0519 30.4318 36.7523 31.2959 36.7523H39.1179C45.1653 36.7145 50.0375 31.7817 50.0001 25.7339C49.9657 20.2266 45.8466 15.6017 40.3802 14.9326V14.9326Z" fill="white"/>
<path d="M30.5682 30.4165C31.1687 31.0383 32.159 31.0555 32.7804 30.4551C33.4018 29.855 33.419 28.8647 32.8189 28.2433C32.8063 28.23 32.7934 28.2174 32.7804 28.2048L26.1459 21.5687C25.5359 20.9569 24.5452 20.9557 23.9333 21.5657C23.9326 21.5668 23.9314 21.5676 23.9307 21.5687L17.2962 28.2048C16.6747 28.8048 16.6576 29.7951 17.2576 30.4165C17.8581 31.038 18.8484 31.0551 19.4698 30.4551C19.4827 30.4425 19.4957 30.4295 19.5083 30.4165L23.4741 26.4493V46.1384C23.4741 47.0025 24.1744 47.7028 25.0385 47.7028C25.9021 47.7028 26.6025 47.0025 26.6025 46.1384V26.4493L30.5682 30.4165Z" fill="white"/>
</g>
<defs>
<clipPath id="clip0">
<rect width="50" height="50" fill="white"/>
</clipPath>
</defs>
</svg>
