<svg width="50" height="49" viewBox="0 0 50 49" fill="none" xmlns="http://www.w3.org/2000/svg">
<path d="M47.1429 17.2397C49.1785 11.4503 47.1429 1.52541 47.1429 1.52541C47.1429 1.52541 38.0635 0.873256 32.8572 2.95399C24.035 6.47974 20 21.5254 17.1429 21.5254C14.2857 21.5254 11.6107 20.1227 8.57146 21.5254C5.32801 23.0224 2.85718 28.6683 2.85718 28.6683C2.85718 28.6683 6.38323 28.2306 8.57146 28.6683C14.7607 29.9062 17.6186 34.2514 20 40.0969C20.8679 42.227 21.4286 45.8112 21.4286 45.8112C21.4286 45.8112 25.7835 43.9612 27.1429 41.5254C28.7743 38.6024 27.1429 37.2397 27.1429 32.954C27.1429 28.6683 43.8482 26.6103 47.1429 17.2397Z" stroke="white" stroke-width="2"/>
<path d="M7.85718 35C5.71432 37.1429 4.81342 37.4753 3.86015 40.0969C3.18608 41.9504 2.43156 44.4793 3.14586 45.0969C3.86015 45.7143 6.31919 45.1267 8.14586 44.3826C11.0685 43.1919 12.1429 41.4286 13.5715 40" stroke="white" stroke-width="2"/>
<path d="M34.2857 20C36.6526 20 38.5714 18.0812 38.5714 15.7143C38.5714 13.3474 36.6526 11.4286 34.2857 11.4286C31.9188 11.4286 30 13.3474 30 15.7143C30 18.0812 31.9188 20 34.2857 20Z" stroke="white" stroke-width="2"/>
</svg>
